<?xml version="1.0" encoding="UTF-8" standalone="no"?>
<svg
   xmlns:dc="http://purl.org/dc/elements/1.1/"
   xmlns:cc="http://creativecommons.org/ns#"
   xmlns:rdf="http://www.w3.org/1999/02/22-rdf-syntax-ns#"
   xmlns:svg="http://www.w3.org/2000/svg"
   xmlns="http://www.w3.org/2000/svg"
   xmlns:sodipodi="http://sodipodi.sourceforge.net/DTD/sodipodi-0.dtd"
   xmlns:inkscape="http://www.inkscape.org/namespaces/inkscape"
   width="210mm"
   height="297mm"
   viewBox="0 0 210 297"
   version="1.1"
   id="svg8"
   inkscape:version="1.0 (4035a4fb49, 2020-05-01)"
   sodipodi:docname="Daun border (gemastik).svg">
  <defs
     id="defs2" />
  <sodipodi:namedview
     id="base"
     pagecolor="#ffffff"
     bordercolor="#666666"
     borderopacity="1.0"
     inkscape:pageopacity="0.0"
     inkscape:pageshadow="2"
     inkscape:zoom="0.7"
     inkscape:cx="318.98195"
     inkscape:cy="510.71863"
     inkscape:document-units="mm"
     inkscape:current-layer="layer1"
     inkscape:document-rotation="0"
     showgrid="false"
     inkscape:window-width="1366"
     inkscape:window-height="705"
     inkscape:window-x="-8"
     inkscape:window-y="-8"
     inkscape:window-maximized="1" />
  <metadata
     id="metadata5">
    <rdf:RDF>
      <cc:Work
         rdf:about="">
        <dc:format>image/svg+xml</dc:format>
        <dc:type
           rdf:resource="http://purl.org/dc/dcmitype/StillImage" />
        <dc:title></dc:title>
      </cc:Work>
    </rdf:RDF>
  </metadata>
  <g
     inkscape:label="Layer 1"
     inkscape:groupmode="layer"
     id="layer1">
    <ellipse
       style="opacity:1;fill:#3498db;fill-opacity:1;stroke-width:2.5;stroke-miterlimit:4;stroke-dasharray:none;stroke:#ffffff;stroke-opacity:1"
       id="path1057"
       cx="105.26635"
       cy="132.10268"
       rx="99.21875"
       ry="98.462799" />
    <g
       id="g850"
       transform="matrix(0.89941465,0,0,0.89289074,38.501058,54.018388)">
      <path
         sodipodi:nodetypes="cscsc"
         d="m 168.57738,63.311001 c 0,0 -10.57106,47.218199 -39.87648,41.010419 -30.33368,-6.425602 -54.617562,8.12649 -54.617562,8.12649 0,0 15.590449,-37.230649 45.546132,-37.230649 29.95568,0 48.94791,-11.90626 48.94791,-11.90626 z"
         style="fill:#008000;stroke-width:0.132292"
         id="path14" />
      <path
         id="path17"
         style="fill:#ffffff;stroke-width:0.132292"
         d="m 168.57738,63.311001 c 0,0 -11.83056,23.6656 -41.76636,24.75744 -31.089633,1.13393 -52.727682,24.379469 -52.727682,24.379469 0,0 17.76036,-25.109659 46.680062,-26.269339 30.5862,-1.22651 47.81398,-22.86757 47.81398,-22.86757 z"
         sodipodi:nodetypes="cscsc" />
      <path
         id="path19"
         style="opacity:0.919355;fill:#00b500;fill-opacity:1;stroke-width:0.132;stroke-miterlimit:4;stroke-dasharray:none"
         d="m 156.97812,45.574801 c 0,0 -1.01303,48.37643 -30.9674,48.09374 -31.005401,-0.29262 -51.927382,18.779369 -51.927382,18.779369 0,0 7.910504,-39.580389 37.273182,-45.511329 29.36267,-5.93094 45.6216,-21.36178 45.6216,-21.36178 z"
         sodipodi:nodetypes="cscsc" />
      <path
         sodipodi:nodetypes="cscsc"
         d="m 156.97812,45.574801 c 0,0 -6.91079,25.53945 -36.0378,32.53668 -30.249678,7.26693 -46.856982,34.336429 -46.856982,34.336429 0,0 12.4373,-28.128969 40.554902,-34.991519 29.73787,-7.258 42.33988,-31.88159 42.33988,-31.88159 z"
         style="fill:#ffffff;stroke-width:0.132292"
         id="path21" />
    </g>
    <g
       transform="matrix(-0.88894645,0,0,0.89289074,170.98881,54.018388)"
       id="g860">
      <path
         id="path852"
         style="fill:#008000;stroke-width:0.132292"
         d="m 168.57738,63.311001 c 0,0 -10.57106,47.218199 -39.87648,41.010419 -30.33368,-6.425602 -54.617562,8.12649 -54.617562,8.12649 0,0 15.590449,-37.230649 45.546132,-37.230649 29.95568,0 48.94791,-11.90626 48.94791,-11.90626 z"
         sodipodi:nodetypes="cscsc" />
      <path
         sodipodi:nodetypes="cscsc"
         d="m 168.57738,63.311001 c 0,0 -11.83056,23.6656 -41.76636,24.75744 -31.089633,1.13393 -52.727682,24.379469 -52.727682,24.379469 0,0 17.76036,-25.109659 46.680062,-26.269339 30.5862,-1.22651 47.81398,-22.86757 47.81398,-22.86757 z"
         style="fill:#ffffff;stroke-width:0.132292"
         id="path854" />
      <path
         sodipodi:nodetypes="cscsc"
         d="m 156.97812,45.574801 c 0,0 -1.01303,48.37643 -30.9674,48.09374 -31.005401,-0.29262 -51.927382,18.779369 -51.927382,18.779369 0,0 7.910504,-39.580389 37.273182,-45.511329 29.36267,-5.93094 45.6216,-21.36178 45.6216,-21.36178 z"
         style="opacity:0.919355;fill:#00b500;fill-opacity:1;stroke-width:0.132;stroke-miterlimit:4;stroke-dasharray:none"
         id="path856" />
      <path
         id="path858"
         style="fill:#ffffff;stroke-width:0.132292"
         d="m 156.97812,45.574801 c 0,0 -6.91079,25.53945 -36.0378,32.53668 -30.249678,7.26693 -46.856982,34.336429 -46.856982,34.336429 0,0 12.4373,-28.128969 40.554902,-34.991519 29.73787,-7.258 42.33988,-31.88159 42.33988,-31.88159 z"
         sodipodi:nodetypes="cscsc" />
    </g>
    <ellipse
       style="opacity:0.919355;fill:#9db500;fill-opacity:1;stroke-width:0.150929;stroke-miterlimit:4;stroke-dasharray:none"
       id="path871"
       cx="105.13269"
       cy="186.6525"
       rx="20.737398"
       ry="5.7373548" />
    <rect
       style="opacity:0.919355;fill:#008000;fill-opacity:1;stroke-width:0.0950668;stroke-miterlimit:4;stroke-dasharray:none"
       id="rect873"
       width="2.0629256"
       height="28.252501"
       x="104.08964"
       y="153.67514" />
    <g
       id="g935"
       transform="translate(1.5119048,-17.008928)">
      <circle
         r="8.6934519"
         cy="93.738098"
         cx="92.982132"
         id="path879"
         style="opacity:0.919355;fill:#b3b3b3;fill-opacity:1;stroke-width:0.0842032;stroke-miterlimit:4;stroke-dasharray:none" />
      <circle
         style="opacity:0.919355;fill:#b3b3b3;fill-opacity:1;stroke-width:0.0842031;stroke-miterlimit:4;stroke-dasharray:none"
         id="path879-7"
         cx="102.43154"
         cy="86.556549"
         r="8.6934519" />
      <circle
         style="opacity:0.919355;fill:#b3b3b3;fill-opacity:1;stroke-width:0.0842031;stroke-miterlimit:4;stroke-dasharray:none"
         id="path879-0"
         cx="105.83334"
         cy="97.895828"
         r="8.6934519" />
      <circle
         r="8.6934519"
         cy="90.714279"
         cx="115.66071"
         id="path879-0-7"
         style="opacity:0.919355;fill:#b3b3b3;fill-opacity:1;stroke-width:0.0842031;stroke-miterlimit:4;stroke-dasharray:none" />
      <circle
         r="8.6934519"
         cy="85.422623"
         cx="114.52678"
         id="path879-0-1"
         style="opacity:0.919355;fill:#b3b3b3;fill-opacity:1;stroke-width:0.0842031;stroke-miterlimit:4;stroke-dasharray:none" />
      <circle
         r="8.6934519"
         cy="86.556541"
         cx="92.982147"
         id="path879-0-6"
         style="opacity:0.919355;fill:#b3b3b3;fill-opacity:1;stroke-width:0.0842031;stroke-miterlimit:4;stroke-dasharray:none" />
    </g>
    <g
       transform="translate(0.37797616,-17.386904)"
       id="g949"
       style="fill:#ffffff;fill-opacity:1;stroke-width:1;stroke-miterlimit:4;stroke-dasharray:none">
      <circle
         style="opacity:0.919355;fill:#ffffff;fill-opacity:1;stroke-width:1;stroke-miterlimit:4;stroke-dasharray:none"
         id="circle937"
         cx="92.982132"
         cy="93.738098"
         r="8.6934519" />
      <circle
         r="8.6934519"
         cy="86.556549"
         cx="102.43154"
         id="circle939"
         style="opacity:0.919355;fill:#ffffff;fill-opacity:1;stroke-width:1;stroke-miterlimit:4;stroke-dasharray:none" />
      <circle
         r="8.6934519"
         cy="97.895828"
         cx="105.83334"
         id="circle941"
         style="opacity:0.919355;fill:#ffffff;fill-opacity:1;stroke-width:1;stroke-miterlimit:4;stroke-dasharray:none" />
      <circle
         style="opacity:0.919355;fill:#ffffff;fill-opacity:1;stroke-width:1;stroke-miterlimit:4;stroke-dasharray:none"
         id="circle943"
         cx="115.66071"
         cy="90.714279"
         r="8.6934519" />
      <circle
         style="opacity:0.919355;fill:#ffffff;fill-opacity:1;stroke-width:1;stroke-miterlimit:4;stroke-dasharray:none"
         id="circle945"
         cx="114.52678"
         cy="85.422623"
         r="8.6934519" />
      <circle
         style="opacity:0.919355;fill:#ffffff;fill-opacity:1;stroke-width:1;stroke-miterlimit:4;stroke-dasharray:none"
         id="circle947"
         cx="92.982147"
         cy="86.556541"
         r="8.6934519" />
    </g>
  </g>
</svg>
